<svg width="70" height="49" viewBox="0 0 70 49" fill="none" xmlns="http://www.w3.org/2000/svg">
<path d="M69.9949 11.8275V10.2277C69.9949 9.99762 69.9729 9.78263 69.9663 9.55543C69.9685 9.51085 69.9927 9.47274 69.9927 9.42744V3.0273C69.9927 1.70573 68.8923 0.626465 67.5466 0.626465H65.9158C63.6756 0.626465 61.8418 4.94845 61.8418 10.2276V24.7123C63.4396 25.0301 64.6981 26.2625 65.0227 27.8329H65.1026V46.2363C65.1026 47.5564 66.2022 48.6356 67.5457 48.6356H67.5508C68.8959 48.6356 69.9992 47.5564 69.9992 46.2363L69.9985 27.8321V11.8274L69.9949 11.8275Z" fill="#596B86"/>
<path d="M10.5912 0.537109C10.1429 0.537109 9.77654 0.89662 9.77654 1.33668V12.5412C9.77654 12.9842 9.41245 13.3408 8.96189 13.3408C8.51062 13.3408 8.14724 12.9835 8.14724 12.5412V1.33668C8.14724 0.896638 7.78095 0.537109 7.33259 0.537109C6.88422 0.537109 6.51793 0.89662 6.51793 1.33668V12.5412C6.51793 12.9842 6.15164 13.3408 5.70328 13.3408C5.2498 13.3408 4.88863 12.9835 4.88863 12.5412V1.33668C4.88863 0.896638 4.52234 0.537109 4.07397 0.537109C3.62344 0.537109 3.25932 0.89662 3.25932 1.33668V12.5412C3.25713 12.9842 2.89303 13.3408 2.44467 13.3408C1.99119 13.3408 1.63002 12.9835 1.63002 12.5412V1.33668C1.63002 0.896638 1.26372 0.537109 0.81317 0.537109C0.364827 0.537109 0 0.89662 0 1.33668V16.1989C0 17.7326 1.36922 19.0347 3.26082 19.5273V46.1476C3.26082 47.4677 4.36045 48.547 5.70696 48.547C7.05054 48.547 8.15309 47.4677 8.15309 46.1476L8.14943 19.5273C10.0395 19.0347 11.4103 17.7326 11.4103 16.1989V1.33668C11.4059 0.896638 11.0396 0.537109 10.5912 0.537109H10.5912Z" fill="#596B86"/>
<path d="M35.0001 9.7002C28.5555 9.7002 23.332 14.8282 23.332 21.1536H46.67C46.6685 14.8284 41.4452 9.7002 35.0004 9.7002H35.0001ZM35.0001 11.7616C39.5561 11.7616 43.3765 14.9002 44.3369 19.0906H25.664C26.6237 14.9 30.4441 11.7616 35.0001 11.7616V11.7616Z" fill="#596B86"/>
<path d="M33.9473 0.537109H36.0455V7.40957H33.9473V0.537109Z" fill="#596B86"/>
<path d="M16.9326 8.80713L22.9963 12.2419L21.9465 14.0272L15.8828 10.5925L16.9326 8.80713Z" fill="#596B86"/>
<path d="M25.571 2.37402L29.0705 8.3254L27.2515 9.35577L23.752 3.40439L25.571 2.37402Z" fill="#596B86"/>
<path d="M53.1036 8.80322L54.1549 10.5878L48.0942 14.027L47.043 12.2424L53.1036 8.80322Z" fill="#596B86"/>
<path d="M44.4631 2.37402L46.2813 3.40583L42.7773 9.35426L40.959 8.32245L44.4631 2.37402Z" fill="#596B86"/>
<path d="M51.7232 25.7344L45.1138 25.7366H18.6738V35.4679C18.6738 40.8195 23.1383 45.1999 28.5895 45.1999H40.1587C44.4465 45.1999 48.0839 42.4747 49.459 38.7128H51.7234C55.3732 38.7128 58.335 35.8073 58.335 32.2221C58.335 28.6407 55.3724 25.7344 51.7241 25.7344L51.7232 25.7344ZM51.7232 34.3348H50.0712V30.1162H51.7232C52.91 30.1162 53.8719 31.0603 53.8719 32.2229C53.8719 33.3906 52.9048 34.3348 51.7232 34.3348Z" fill="#596B86"/>
</svg>
