<svg width="23" height="22" viewBox="0 0 23 22" fill="none" xmlns="http://www.w3.org/2000/svg">
<path d="M21.0174 1.90001H18.6291V6.10352e-05H17.7885V1.90001H15.6161V6.10352e-05H14.7755V1.90001H7.26142V6.10352e-05H6.42103V1.90001H4.24849V6.10352e-05H3.40792V1.90001H1.02879C0.893878 1.89966 0.760364 1.92605 0.635762 1.9776C0.510985 2.02898 0.397746 2.10465 0.302155 2.20024C0.206565 2.29566 0.130722 2.40925 0.0788174 2.5342C0.027092 2.65915 0.00017788 2.79302 3.40438e-06 2.92845V20.5125C-0.000346084 20.6481 0.026217 20.7825 0.0777706 20.9079C0.129496 21.0334 0.205169 21.1474 0.300759 21.2433C0.39635 21.3394 0.509942 21.4154 0.634715 21.4673C0.759666 21.5191 0.89353 21.5456 1.02879 21.5454H21.0174C21.1527 21.5456 21.2866 21.5191 21.4115 21.4673C21.5363 21.4154 21.6499 21.3394 21.7455 21.2433C21.8411 21.1474 21.9169 21.0334 21.9685 20.9079C22.02 20.7825 22.0466 20.6481 22.0462 20.5125V2.92845C22.0461 2.79302 22.0191 2.65915 21.9674 2.5342C21.9155 2.40925 21.8397 2.29566 21.7441 2.20024C21.6485 2.10465 21.5352 2.02899 21.4105 1.9776C21.2859 1.92605 21.1524 1.89966 21.0174 1.90001V1.90001ZM21.2196 20.5125C21.2191 20.5662 21.1976 20.6176 21.1599 20.6555C21.1221 20.6934 21.0709 20.7149 21.0174 20.7154H1.02879C0.975314 20.7149 0.924112 20.6934 0.886363 20.6555C0.848613 20.6176 0.827121 20.5662 0.826598 20.5125V6.7652H21.2197L21.2196 20.5125ZM21.2196 5.91653H0.826553V2.92821C0.827252 2.87509 0.848922 2.82423 0.886846 2.78719C0.924768 2.74996 0.975797 2.72934 1.02875 2.73004H3.40788V4.28395H4.24845V2.73004H6.42099V4.28395H7.26138V2.73004H14.7755V4.28395H15.616V2.73004H17.7884V4.28395H18.629V2.73004H21.0174C21.0704 2.72934 21.1214 2.74996 21.1593 2.78719C21.1972 2.82423 21.2189 2.87509 21.2196 2.92821L21.2196 5.91653Z" fill="#4E4E4E"/>
<path d="M18.6397 10.2039H15.6367V11.0492H18.6397V10.2039Z" fill="#4E4E4E"/>
<path d="M12.7782 10.1666H9.77539V11.0119H12.7782V10.1666Z" fill="#4E4E4E"/>
<path d="M5.36834 8.99771C5.6836 8.99771 5.99171 9.09155 6.25365 9.26718C6.51578 9.44298 6.7199 9.69288 6.84065 9.98526C6.96123 10.2776 6.99268 10.5994 6.93135 10.9097C6.86983 11.2201 6.71797 11.5051 6.49516 11.7288C6.27234 11.9527 5.98837 12.1051 5.67924 12.1667C5.37027 12.2284 5.04978 12.1968 4.75863 12.0757C4.46749 11.9546 4.21865 11.7494 4.04355 11.4864C3.86844 11.2232 3.77495 10.9139 3.77495 10.5976C3.77547 10.1733 3.94359 9.76666 4.24223 9.46679C4.54087 9.16692 4.94595 8.99808 5.36836 8.99776L5.36834 8.99771ZM5.36834 8.21359C4.89878 8.21359 4.43986 8.3534 4.04931 8.61536C3.6589 8.87732 3.35467 9.24973 3.17482 9.68521C2.99518 10.1209 2.94817 10.6002 3.03974 11.0626C3.13149 11.525 3.35762 11.9499 3.68964 12.2831C4.02168 12.6165 4.44476 12.8435 4.90524 12.9356C5.36572 13.0276 5.84316 12.9804 6.27707 12.8C6.71081 12.6195 7.08163 12.3141 7.34253 11.9219C7.60344 11.5299 7.74272 11.0691 7.74272 10.5976C7.74272 9.9653 7.49247 9.35888 7.04719 8.91187C6.60209 8.46484 5.99815 8.21356 5.36833 8.21356L5.36834 8.21359Z" fill="#4E4E4E"/>
<path d="M6.00424 10.1685H4.75195V11.0138H6.00424V10.1685Z" fill="#4E4E4E"/>
<path d="M18.6397 12.9708H15.6367V13.8161H18.6397V12.9708Z" fill="#4E4E4E"/>
<path d="M12.7782 12.9337H9.77539V13.779H12.7782V12.9337Z" fill="#4E4E4E"/>
<path d="M18.6397 15.7377H15.6367V16.583H18.6397V15.7377Z" fill="#4E4E4E"/>
<path d="M12.7782 15.7002H9.77539V16.5455H12.7782V15.7002Z" fill="#4E4E4E"/>
<path d="M6.85456 15.7431H3.85156V16.5884H6.85456V15.7431Z" fill="#4E4E4E"/>
</svg>
