<svg width="59" height="50" viewBox="0 0 59 50" fill="none" xmlns="http://www.w3.org/2000/svg">
<path d="M32.336 46.4636C32.336 48.2021 30.9002 49.6113 29.129 49.6113C27.3577 49.6113 25.9219 48.2021 25.9219 46.4636C25.9219 44.7252 27.3577 43.3159 29.129 43.3159C30.9002 43.3159 32.336 44.7252 32.336 46.4636Z" fill="#596B86"/>
<path d="M42.6462 30.8423C38.8308 27.7849 34.0563 26.1147 29.1309 26.1147C24.2056 26.1147 19.4307 27.7849 15.6156 30.8423C15.0004 31.3217 14.6069 32.0235 14.5242 32.7903C14.4412 33.5572 14.6756 34.3244 15.175 34.9199C15.6741 35.5153 16.3961 35.8887 17.1787 35.9565C17.9612 36.024 18.7388 35.7803 19.3364 35.28C22.1038 33.0694 25.5633 31.8625 29.1315 31.8625C32.6994 31.8625 36.1588 33.0694 38.9266 35.28C39.5238 35.7827 40.3023 36.0284 41.0861 35.9613C41.8702 35.8947 42.5935 35.5209 43.0938 34.9243C43.5937 34.328 43.828 33.5592 43.7438 32.7911C43.6599 32.0235 43.2644 31.3208 42.6466 30.8423L42.6462 30.8423Z" fill="#596B86"/>
<path d="M55.2364 24.6522C55.8831 17.6935 49.8711 11.1621 42.7536 11.0798C38.8499 -2.14817 21.3413 -3.20168 15.9806 9.47152C7.59197 11.4316 2.75438 17.2211 4.05188 24.0408C0.655772 25.6588 -0.38285 29.2149 0.119497 31.9586C0.361256 33.5048 1.16344 34.9136 2.37833 35.9262C3.5933 36.9388 5.13951 37.4876 6.73326 37.4715H14.1717C14.4572 37.4603 14.7068 37.2796 14.8017 37.0154C14.897 36.7513 14.8184 36.457 14.6041 36.2723C13.6567 35.4436 13.1266 34.2495 13.1532 33.0041C13.1802 31.7591 13.761 30.5879 14.7433 29.7994C18.804 26.5445 23.8863 24.7663 29.1298 24.7663C34.3733 24.7663 39.4551 26.5445 43.5164 29.7994C45.5699 31.3648 45.6624 34.6638 43.6391 36.2862C43.4268 36.4721 43.3524 36.7668 43.4514 37.029C43.5508 37.2908 43.8032 37.4666 44.0879 37.4715H51.4368C55.2743 37.6473 58.2011 34.2166 58.251 30.5144C58.1704 27.8934 57.1048 25.8302 55.2362 24.6526L55.2364 24.6522ZM10.6305 25.1994C10.4509 25.527 10.0344 25.6499 9.70065 25.4736C8.28283 24.7236 6.6142 24.5759 5.08224 25.0645C5.4234 24.9437 5.60994 24.5835 5.50848 24.2418C5.45121 24.0254 5.40662 23.8062 5.37554 23.585C7.06657 23.2462 8.82558 23.4943 10.351 24.2868C10.6848 24.4631 10.81 24.8718 10.6304 25.1994H10.6305ZM25.149 11.5839C24.9645 11.9091 24.546 12.026 24.2143 11.8445C21.9014 10.628 19.2342 10.2233 16.6547 10.6978C16.8686 10.6432 17.0424 10.4911 17.1222 10.2887C17.2736 9.92016 17.4339 9.5556 17.6123 9.2051C20.1297 8.98348 22.6577 9.49136 24.8835 10.6665C25.2148 10.8476 25.3339 11.2583 25.149 11.584L25.149 11.5839ZM32.9421 17.1775C32.8402 17.3325 32.6783 17.4397 32.4942 17.4742C32.3097 17.5087 32.1191 17.4678 31.9661 17.3606C31.8131 17.2538 31.7116 17.09 31.685 16.9077C31.658 16.7254 31.7084 16.5403 31.8245 16.3954C34.0168 13.3204 37.5036 11.3784 41.3173 11.107C41.4089 11.3768 41.4916 11.6466 41.5693 11.9252V11.9256C41.6568 12.2159 41.9252 12.4174 42.2336 12.4247C38.5312 12.4234 35.0619 14.198 32.942 17.1775L32.9421 17.1775ZM51.1217 24.7681C50.7421 24.7681 50.4344 24.4662 50.4344 24.0936C50.4344 23.721 50.7421 23.4191 51.1217 23.4191C52.0723 23.4167 53.0144 23.5986 53.8935 23.9543C53.889 24.2827 53.8661 24.6152 53.8293 24.9436C53.8003 25.2021 53.925 25.4539 54.15 25.5912C53.237 25.0488 52.1889 24.7641 51.1217 24.7681H51.1217Z" fill="#596B86"/>
<path d="M36.1222 37.0212C34.0597 35.6469 31.6241 34.9121 29.1308 34.9121C26.6375 34.9121 24.202 35.6468 22.1394 37.0212C21.2816 37.6118 20.8099 38.6063 20.902 39.6305C20.994 40.6547 21.6359 41.5528 22.5857 41.9869C23.5356 42.4205 24.649 42.3241 25.5069 41.734C26.5815 41.0358 27.8419 40.6636 29.1308 40.6636C30.4197 40.6636 31.6801 41.0358 32.7546 41.734C33.3915 42.172 34.1794 42.3442 34.9456 42.2121C35.7114 42.08 36.3924 41.6548 36.8392 41.0301C37.2859 40.405 37.461 39.6318 37.3268 38.8797C37.1922 38.1281 36.759 37.4597 36.1221 37.0212L36.1222 37.0212Z" fill="#596B86"/>
</svg>
