<svg width="51" height="46" viewBox="0 0 51 46" fill="none" xmlns="http://www.w3.org/2000/svg">
<path d="M50.3214 39.9523H46.5173V37.5247C46.5196 36.6419 46.1123 35.807 45.4116 35.2677L44.7336 34.7513C44.0533 34.228 43.8918 33.2678 44.3627 32.5489L46.0623 29.9279C46.3626 29.4638 46.5196 28.9223 46.5173 28.3694V18.7772C46.5173 17.9331 46.1442 17.13 45.4981 16.5862C45.1295 16.2882 44.9088 15.8468 44.8906 15.3736C44.886 14.8913 45.0885 14.4317 45.448 14.1108L45.5276 14.0449C46.1465 13.4988 46.4991 12.7162 46.4991 11.8903V5.26036C46.4946 2.48921 44.2513 0.245876 41.4801 0.241333H5.93948C3.17061 0.245884 0.925001 2.48921 0.922729 5.26036C0.922729 5.41962 0.986437 5.57433 1.10019 5.68809C1.21395 5.80185 1.36866 5.86555 1.52793 5.86555H9.91859L9.74341 15.9057V15.908C9.74341 16.4267 9.88219 16.9363 10.1507 17.3822L13.0561 22.4786C13.3609 23.0042 13.3473 23.6571 13.0197 24.1713L10.4647 28.2598C10.1848 28.7103 10.0347 29.2336 10.0347 29.7636L9.97322 40.6C9.95502 43.2437 12.0277 45.4302 14.6692 45.5507H43.4273C45.8958 45.5507 47.8069 45.0843 49.0993 44.1742H49.1015C50.2687 43.3711 50.9535 42.0333 50.9217 40.6181V40.534C50.908 40.2109 50.6441 39.9538 50.321 39.9515L50.3214 39.9523ZM2.18367 4.65339C2.48399 2.81276 4.07434 1.45905 5.93996 1.45677H6.12197C7.14579 1.4545 8.12639 1.86403 8.84081 2.59661C9.3914 3.15858 9.75542 3.87752 9.88286 4.65333L2.18367 4.65339ZM23.8499 4.42815C24.016 4.43725 24.1798 4.3963 24.3232 4.31439C24.9511 3.99815 25.6906 3.99815 26.3185 4.31439C26.4641 4.3963 26.6302 4.43725 26.7986 4.42815C26.9624 4.43725 27.1239 4.3963 27.265 4.31439C27.5767 4.16196 27.9202 4.08915 28.2661 4.10053C28.6119 4.09598 28.9555 4.17788 29.2626 4.33714C29.5584 4.49185 29.911 4.49185 30.2091 4.33714C30.837 4.0209 31.5765 4.0209 32.2044 4.33714C32.3477 4.42132 32.5115 4.46228 32.6776 4.45318C33.0121 4.45318 33.2851 4.72392 33.2851 5.06067C33.2851 5.39512 33.0121 5.66588 32.6776 5.66588C32.3295 5.67498 31.9837 5.59308 31.6765 5.42926C31.5355 5.34963 31.3716 5.30868 31.2101 5.31551C31.044 5.30868 30.8802 5.34963 30.7369 5.42926C30.4274 5.59308 30.0839 5.67498 29.7358 5.66588C29.3877 5.67498 29.0464 5.59308 28.7393 5.42926C28.4435 5.27683 28.0908 5.27683 27.7928 5.42926C27.1649 5.74551 26.4254 5.74551 25.7975 5.42926C25.5017 5.27683 25.1468 5.27683 24.851 5.42926C24.5439 5.59308 24.198 5.67498 23.8499 5.66588C23.5154 5.66588 23.2424 5.39514 23.2424 5.06067C23.2424 4.72394 23.5154 4.45318 23.8499 4.45318L23.8499 4.42815ZM19.4384 8.62127C19.8639 8.63265 20.2825 8.53026 20.6533 8.32322C21.7431 7.78628 23.0218 7.79538 24.1048 8.34825C24.4756 8.55529 24.8943 8.65767 25.3174 8.6463C25.7429 8.65767 26.1615 8.55301 26.5323 8.34825C27.0624 8.06385 27.6585 7.92052 28.2615 7.93645C28.8644 7.92279 29.4628 8.06385 29.9952 8.34825C30.7551 8.74868 31.6629 8.74868 32.4228 8.34825C32.9529 8.06385 33.549 7.92052 34.152 7.93645C34.7572 7.92279 35.3532 8.06385 35.8879 8.34825C36.2565 8.55529 36.6774 8.65767 37.1006 8.6463C37.435 8.6463 37.7081 8.91704 37.7081 9.25151C37.7081 9.58823 37.435 9.859 37.1006 9.859C36.4976 9.87038 35.8993 9.72704 35.3646 9.4472C34.996 9.23788 34.5751 9.1355 34.152 9.14915C33.7288 9.13777 33.3101 9.24016 32.9393 9.4472C32.4069 9.72932 31.8108 9.87038 31.2102 9.859C30.6049 9.87038 30.0089 9.72704 29.4742 9.4472C28.7143 9.04677 27.8065 9.04677 27.0466 9.4472C25.959 9.99779 24.6713 9.99779 23.5838 9.4472C23.2129 9.24016 22.7943 9.13777 22.3689 9.14915C21.9457 9.13777 21.527 9.24016 21.1562 9.4472C20.6215 9.72704 20.0255 9.87038 19.4202 9.859C19.0858 9.859 18.815 9.58826 18.815 9.25151C18.815 8.91706 19.0858 8.6463 19.4202 8.6463L19.4384 8.62127ZM19.4384 12.6324C19.8639 12.6438 20.2825 12.5414 20.6533 12.3343C21.7431 11.7837 23.0309 11.7837 24.1229 12.3343C24.4938 12.5414 24.9124 12.6438 25.3356 12.6324C25.761 12.6438 26.1797 12.5391 26.5505 12.3343C27.0806 12.0499 27.6767 11.9066 28.2797 11.9225C28.8826 11.9089 29.4809 12.0499 30.0134 12.3343C30.7733 12.7348 31.6811 12.7348 32.441 12.3343C32.9711 12.0499 33.5672 11.9066 34.1701 11.9225C34.7753 11.9089 35.3714 12.0499 35.9061 12.3343C36.2747 12.5414 36.6956 12.6438 37.1187 12.6324C37.4532 12.6324 37.7262 12.9031 37.7262 13.2376C37.7262 13.5743 37.4532 13.8451 37.1187 13.8451C36.5135 13.8587 35.9175 13.7154 35.3828 13.4333C35.0142 13.224 34.5933 13.1216 34.1701 13.1352C33.7469 13.1239 33.3283 13.2262 32.9575 13.4333C32.4251 13.7177 31.829 13.8587 31.2283 13.8451C30.6231 13.8587 30.0248 13.7154 29.4924 13.4333C28.7324 13.0328 27.8246 13.0328 27.0647 13.4333C25.9749 13.9839 24.6872 13.9839 23.5951 13.4333C22.8352 13.0328 21.9274 13.0328 21.1675 13.4333C20.6351 13.7154 20.0368 13.8587 19.4338 13.8451C19.0971 13.8451 18.8263 13.5743 18.8263 13.2376C18.8263 12.9031 19.0971 12.6324 19.4338 12.6324H19.4384ZM19.4384 16.6435V16.6412C19.8639 16.6549 20.2825 16.5525 20.6533 16.3454C21.7431 15.7948 23.0309 15.7948 24.1229 16.3454C24.4938 16.5525 24.9124 16.6549 25.3356 16.6412C25.761 16.6526 26.1797 16.5502 26.5505 16.3454C27.0806 16.0633 27.6767 15.92 28.2797 15.9314C28.8826 15.9223 29.4787 16.0633 30.0134 16.3454C30.7733 16.7459 31.6811 16.7459 32.441 16.3454C32.9734 16.0633 33.5672 15.92 34.1701 15.9314C34.7731 15.9223 35.3714 16.0633 35.9061 16.3454C36.2747 16.5525 36.6956 16.6549 37.1187 16.6412C37.4532 16.6412 37.7262 16.9142 37.7262 17.2487C37.7262 17.5832 37.4532 17.8562 37.1187 17.8562C36.5044 17.8767 35.897 17.7356 35.3532 17.4489C34.9824 17.2419 34.5637 17.1395 34.1406 17.1509C33.7151 17.1395 33.2965 17.2419 32.9257 17.4489C32.3956 17.7333 31.7995 17.8767 31.1965 17.8607C30.5982 17.8721 30.0043 17.731 29.4742 17.4489C28.7143 17.0485 27.8065 17.0485 27.0466 17.4489C25.9591 17.9995 24.6714 17.9995 23.5838 17.4489C23.213 17.2442 22.7943 17.1395 22.3689 17.1509C21.9457 17.1395 21.5271 17.2419 21.1563 17.4489C20.6239 17.7333 20.0255 17.8744 19.4203 17.8607C19.0858 17.8607 18.8151 17.59 18.8151 17.2555C18.8151 16.9188 19.0858 16.648 19.4203 16.648L19.4384 16.6435ZM19.4384 20.6523C19.8616 20.666 20.2825 20.5659 20.6533 20.3611C21.7431 19.8105 23.0309 19.8105 24.1229 20.3611C24.4938 20.5659 24.9124 20.666 25.3356 20.6523C25.7588 20.666 26.1774 20.5636 26.5505 20.3611C27.0806 20.0767 27.6767 19.9334 28.2797 19.9493C28.8826 19.9356 29.4809 20.0767 30.0134 20.3611C30.7755 20.7524 31.6788 20.7524 32.441 20.3611C32.9711 20.0767 33.5672 19.9334 34.1701 19.9493C34.7753 19.9356 35.3714 20.0767 35.9061 20.3611C36.2769 20.5659 36.6956 20.666 37.1187 20.6523C37.4532 20.6523 37.7262 20.9231 37.7262 21.2598C37.7262 21.5943 37.4532 21.865 37.1187 21.865C36.5135 21.8787 35.9175 21.7376 35.3828 21.4532C35.0119 21.2484 34.5933 21.1483 34.1701 21.162C33.7469 21.1483 33.3283 21.2507 32.9575 21.4532C32.4251 21.7376 31.829 21.8809 31.2283 21.865C30.6231 21.8787 30.0248 21.7376 29.4924 21.4532C28.7302 21.0619 27.8269 21.0619 27.0647 21.4532C25.9772 22.0038 24.6895 22.0038 23.6019 21.4532C23.2288 21.2507 22.8102 21.1483 22.387 21.162C21.9638 21.1483 21.5452 21.2484 21.1744 21.4532C20.642 21.7376 20.0436 21.8787 19.4384 21.865C19.104 21.865 18.8332 21.5943 18.8332 21.2598C18.8332 20.9231 19.1039 20.6523 19.4384 20.6523ZM19.4384 24.6657V24.6634C19.8616 24.6771 20.2825 24.577 20.6533 24.3722C21.7431 23.8216 23.0309 23.8216 24.1229 24.3722C24.4938 24.577 24.9124 24.6771 25.3356 24.6634C25.7588 24.6748 26.1774 24.5747 26.5505 24.3722C27.0806 24.0855 27.6767 23.9445 28.2797 23.9581C28.8826 23.9445 29.4809 24.0878 30.0134 24.3722C30.7755 24.7635 31.6788 24.7635 32.441 24.3722C32.9711 24.0855 33.5672 23.9445 34.1701 23.9581C34.7753 23.9445 35.3714 24.0878 35.9061 24.3722C36.2769 24.577 36.6956 24.6771 37.1187 24.6634C37.4532 24.6634 37.7262 24.9342 37.7262 25.2686C37.7262 25.6054 37.4532 25.8761 37.1187 25.8761C36.5135 25.8898 35.9175 25.7464 35.3828 25.4643C35.0119 25.2573 34.5933 25.1572 34.1701 25.1731C33.7469 25.1594 33.3283 25.2596 32.9575 25.4643C32.4251 25.7487 31.829 25.8898 31.2283 25.8761C30.6231 25.8898 30.0248 25.7464 29.4924 25.4643C28.7302 25.0707 27.8269 25.0707 27.0647 25.4643C25.9749 26.0149 24.6872 26.0149 23.5951 25.4643C22.8329 25.0707 21.9297 25.0707 21.1675 25.4643C20.6351 25.7464 20.0368 25.8898 19.4338 25.8761C19.0971 25.8761 18.8263 25.6054 18.8263 25.2686C18.8263 24.9342 19.0971 24.6634 19.4338 24.6634L19.4384 24.6657ZM19.4384 28.6768V28.6723C19.8616 28.6859 20.2825 28.5858 20.6533 28.381C21.7363 27.8327 23.0172 27.8282 24.1048 28.3697C24.4756 28.5744 24.8943 28.6745 25.3174 28.6609C25.7406 28.6745 26.1592 28.5721 26.5323 28.3697C27.0624 28.0853 27.6585 27.9419 28.2615 27.9578C28.8644 27.9442 29.4628 28.0853 29.9952 28.3697C30.7574 28.761 31.6606 28.761 32.4228 28.3697C32.9529 28.0853 33.549 27.9419 34.152 27.9578C34.7572 27.9442 35.3532 28.0853 35.8879 28.3697C36.2588 28.5744 36.6774 28.6745 37.1006 28.6609C37.435 28.6609 37.7081 28.9316 37.7081 29.2684C37.7081 29.6028 37.435 29.8736 37.1006 29.8736C36.4954 29.8872 35.8993 29.7462 35.3646 29.4618C34.9937 29.257 34.5751 29.1569 34.152 29.1706C33.7288 29.1569 33.3101 29.2593 32.9393 29.4618C32.4069 29.7462 31.8108 29.8895 31.2102 29.8736C30.6049 29.8872 30.0066 29.7462 29.4742 29.4618C28.712 29.0704 27.8087 29.0704 27.0466 29.4618C25.959 30.0124 24.6713 30.0124 23.5838 29.4618C23.2106 29.2593 22.792 29.1569 22.3689 29.1706C21.9457 29.1569 21.527 29.257 21.1562 29.4618C20.6238 29.7462 20.0255 29.8872 19.4202 29.8736C19.0858 29.8736 18.815 29.6028 18.815 29.2684C18.815 28.9316 19.0858 28.6609 19.4202 28.6609L19.4384 28.6768ZM19.4384 32.6879V32.6834C19.8616 32.697 20.2825 32.5969 20.6533 32.3921C21.7431 31.8415 23.0309 31.8415 24.1229 32.3921C24.4938 32.5969 24.9124 32.697 25.3356 32.6834C25.7588 32.697 26.1774 32.5946 26.5505 32.3921C27.0806 32.1191 27.6722 31.9872 28.266 32.0099C28.8712 31.9963 29.4695 32.1396 30.0019 32.4217C30.7641 32.8153 31.6674 32.8153 32.4296 32.4217C32.9551 32.1396 33.5467 31.9963 34.145 32.0099C34.7502 31.9963 35.3486 32.1396 35.881 32.4217C36.2518 32.6288 36.6705 32.7289 37.0936 32.7129C37.4304 32.7129 37.7011 32.986 37.7011 33.3204C37.7011 33.6549 37.4304 33.9279 37.0936 33.9279C36.4907 33.9416 35.8923 33.7982 35.3599 33.5138C34.9891 33.3091 34.5682 33.209 34.145 33.2226C33.7218 33.2112 33.3032 33.3113 32.9324 33.5138C32.4023 33.8005 31.8062 33.9416 31.2032 33.9279C30.598 33.9416 30.0019 33.7982 29.4673 33.5138C28.7073 33.1225 27.8018 33.1225 27.0419 33.5138C25.9498 34.0644 24.6621 34.0644 23.57 33.5138C22.8101 33.1225 21.9046 33.1225 21.1447 33.5138C20.61 33.7982 20.0139 33.9416 19.4087 33.9279C19.0743 33.9279 18.8012 33.6549 18.8012 33.3204C18.8012 32.986 19.0742 32.7129 19.4087 32.7129L19.4384 32.6879ZM19.4384 36.699V36.6945C19.8616 36.7081 20.2825 36.608 20.6533 36.4032C21.7431 35.8527 23.0309 35.8527 24.1229 36.4032C24.4938 36.608 24.9124 36.7081 25.3356 36.6945C25.7588 36.7058 26.1774 36.6057 26.5505 36.4032C27.0806 36.1166 27.6767 35.9755 28.2797 35.9892C28.8826 35.9755 29.4809 36.1188 30.0134 36.4032C30.7755 36.7946 31.6788 36.7946 32.441 36.4032C32.9711 36.1166 33.5672 35.9755 34.1701 35.9892C34.7753 35.9755 35.3714 36.1188 35.9061 36.4032C36.2769 36.608 36.6956 36.7081 37.1187 36.6945C37.4532 36.6945 37.7262 36.9652 37.7262 37.2997C37.7262 37.6364 37.4532 37.9072 37.1187 37.9072C36.5022 37.9185 35.8924 37.7684 35.3532 37.4703C34.9824 37.2656 34.5637 37.1655 34.1406 37.1791C33.7174 37.1655 33.2988 37.2678 32.9257 37.4703C32.3956 37.7547 31.7995 37.8981 31.1965 37.8821C30.5982 37.8935 30.0043 37.7525 29.4742 37.4703C28.7121 37.079 27.8088 37.079 27.0466 37.4703C25.9591 38.0209 24.6714 38.0209 23.5838 37.4703C23.2107 37.2678 22.7921 37.1655 22.3689 37.1791C21.9457 37.1655 21.5271 37.2656 21.1563 37.4703C20.6239 37.7547 20.0255 37.8958 19.4203 37.8821C19.0858 37.8821 18.8151 37.6114 18.8151 37.2769C18.8151 36.9402 19.0858 36.6694 19.4203 36.6694L19.4384 36.699ZM48.3741 43.2107C47.2934 43.9752 45.6189 44.3642 43.4052 44.3642H18.1121L18.1098 44.362C19.0472 43.5475 19.6433 42.4099 19.7798 41.1767H49.6777C49.5526 42.0094 49.0772 42.7488 48.3741 43.2107Z" fill="#C9D6E9"/>
</svg>
