<svg width="13" height="14" viewBox="0 0 13 14" fill="none" xmlns="http://www.w3.org/2000/svg">
<path d="M3.86257 0.936035C1.82764 0.936035 0.171875 2.59428 0.171875 4.63158V9.90966C0.171875 11.9467 1.82861 13.6042 3.86405 13.6042H9.13732C11.1725 13.6042 12.8285 11.946 12.8285 9.90867V4.6301C12.8285 2.59331 11.1718 0.936035 9.13633 0.936035H3.86257ZM10.2972 2.96294C10.5766 2.96294 10.8034 3.18996 10.8034 3.46967C10.8034 3.74938 10.5766 3.9764 10.2972 3.9764C10.0177 3.9764 9.79092 3.74938 9.79092 3.46967C9.79092 3.18996 10.0177 2.96294 10.2972 2.96294ZM6.50019 3.9764C8.31515 3.9764 9.79092 5.45351 9.79092 7.27013C9.79092 9.08674 8.3149 10.5639 6.50019 10.5639C4.68523 10.5639 3.20947 9.08649 3.20947 7.27013C3.20947 5.45376 4.68523 3.9764 6.50019 3.9764ZM6.50019 4.98985C5.24187 4.98985 4.222 6.01065 4.222 7.27013C4.222 8.5296 5.24187 9.5504 6.50019 9.5504C7.75851 9.5504 8.77839 8.5296 8.77839 7.27013C8.77839 6.01065 7.75851 4.98985 6.50019 4.98985Z" fill="#D23939"/>
</svg>
