<svg width="56" height="49" viewBox="0 0 56 49" fill="none" xmlns="http://www.w3.org/2000/svg">
<path d="M48.6452 7.53954C48.6452 6.67687 47.9421 5.98633 47.0627 5.98633H45.3633V9.15017H47.0627C47.9421 9.09279 48.6452 8.40225 48.6452 7.53954V7.53954Z" fill="#596B86"/>
<path d="M40.3816 18.1234H45.1287V26.5792L48.2349 27.1546L48.2353 18.1234H52.9825C54.3303 18.1234 55.3855 17.0303 55.3855 15.7648V3.33997C55.3855 2.01706 54.2718 0.981445 52.9825 0.981445H40.3818C39.0339 0.981445 37.9788 2.07448 37.9788 3.33997V15.7073C37.9203 17.0302 39.0339 18.1233 40.3818 18.1233L40.3816 18.1234ZM43.4293 4.03038H47.0629C48.9969 4.03038 50.5796 5.5836 50.5796 7.48194C50.5796 9.38018 48.997 10.9335 47.0629 10.9335L45.3635 10.9331V14.9596H43.4294L43.4293 4.03038Z" fill="#596B86"/>
<path d="M52.3955 30.7785L40.9084 28.7077C40.791 28.7077 40.6741 28.5925 40.6152 28.5351C39.5016 27.2122 32.4104 19.9067 27.7801 19.9067H11.5457C7.73645 19.9067 4.27827 23.4156 2.10988 26.3492C0.70319 28.1901 0 30.4335 0 32.7342V39.4069C0 41.5351 1.75834 43.2609 3.92673 43.2609H4.80568C5.50885 46.0219 8.02921 48.0927 11.0769 48.0927C14.1246 48.0927 16.6446 46.0219 17.3482 43.2609H38.5056C39.2088 46.0219 41.7291 48.0927 44.7769 48.0927C47.8246 48.0927 50.3445 46.0219 51.0481 43.2609H51.1654C53.0995 43.2609 54.799 41.8228 55.0337 39.9246L55.6784 35.0928C55.8533 33.022 54.447 31.1236 52.3956 30.7786L52.3955 30.7785ZM10.9598 45.044C9.08409 45.044 7.5605 43.5486 7.5605 41.7077C7.5605 39.8669 9.0842 38.3714 10.9598 38.3714C12.8353 38.3714 14.359 39.8669 14.359 41.7077C14.4175 43.5483 12.8938 45.044 10.9598 45.044ZM18.6373 29.628H8.4394C7.91203 29.628 7.56046 29.1104 7.85316 28.6502C9.37686 26.0039 13.1866 23.4155 15.0618 23.4155H17.6407C17.9923 23.4155 18.2854 23.6454 18.3438 23.9909L19.3401 28.8227C19.3994 29.2256 19.0474 29.628 18.6374 29.628L18.6373 29.628ZM35.0475 29.628H23.7948C23.4432 29.628 23.1501 29.3981 23.0916 29.0526L22.0953 24.2208C22.0369 23.818 22.3296 23.4155 22.7985 23.4155H27.7799C29.4794 23.4155 32.996 26.0618 35.5164 28.4199C35.9849 28.8801 35.6922 29.6281 35.0475 29.6281V29.628ZM44.6592 45.044C42.7835 45.044 41.2599 43.5486 41.2599 41.7077C41.2599 39.8669 42.7836 38.3714 44.6592 38.3714C46.5347 38.3714 48.0584 39.8669 48.0584 41.7077C48.0584 43.5483 46.5344 45.044 44.6592 45.044Z" fill="#596B86"/>
</svg>
