<svg width="54" height="52" viewBox="0 0 54 52" fill="none" xmlns="http://www.w3.org/2000/svg">
<path d="M53.1642 49.9894H45.5367C46.9794 49.0786 47.9416 47.4884 47.9416 45.6748C47.9416 42.8424 45.5962 40.5405 42.7105 40.5405C39.8165 40.5405 37.4793 42.8425 37.4793 45.6748C37.4793 47.4884 38.4326 49.0782 39.8757 49.9894H16.9761C18.4188 49.0786 19.381 47.4884 19.381 45.6748C19.381 42.8424 17.0356 40.5405 14.1499 40.5405C11.2559 40.5405 8.91873 42.8425 8.91873 45.6748C8.91873 47.4884 9.87197 49.0782 11.3151 49.9894H1.12227C0.658069 49.9894 0.287109 50.3619 0.287109 50.8091C0.287109 51.2563 0.658467 51.6288 1.12227 51.6288H53.1643C53.6285 51.6288 53.9995 51.2563 53.9995 50.8091C53.9999 50.3619 53.6285 49.9894 53.1643 49.9894H53.1642ZM42.7019 43.6046C43.8665 43.6046 44.8112 44.5322 44.8112 45.6748C44.8112 46.8178 43.8661 47.745 42.7019 47.745C41.5374 47.745 40.5927 46.8174 40.5927 45.6748C40.5841 44.5318 41.5377 43.6046 42.7019 43.6046V43.6046ZM14.1411 43.6046C15.3057 43.6046 16.2504 44.5322 16.2504 45.6748C16.2504 46.8178 15.3053 47.745 14.1411 47.745C12.9766 47.745 12.0319 46.8174 12.0319 45.6748C12.0319 44.5318 12.9766 43.6046 14.1411 43.6046Z" fill="#596B86"/>
<path d="M2.46416 14.9013L9.57695 14.984C10.8006 15.0004 11.8043 14.04 11.8128 12.839C11.8295 11.6381 10.8425 10.653 9.62737 10.6446H9.59358C9.60212 10.603 9.60212 10.5782 9.60212 10.5371C9.61883 8.93886 8.31136 7.63042 6.6826 7.60563C5.0962 7.58924 3.78863 8.79822 3.70401 10.3385C3.34975 10.1398 2.95314 10.0319 2.51418 10.0239C1.14765 9.99875 0.0172909 11.0838 0.000186884 12.4335C-0.0165164 13.7835 1.08858 14.8849 2.46406 14.9013L2.46416 14.9013Z" fill="#596B86"/>
<path d="M41.7494 2.55451C42.2136 2.55451 42.5845 2.18203 42.5845 1.73482V0.856799C42.5845 0.401199 42.2132 0.0371094 41.7494 0.0371094C41.2852 0.0371094 40.9142 0.409593 40.9142 0.856799V1.72644C40.9057 2.18166 41.2852 2.55452 41.7494 2.55452V2.55451Z" fill="#596B86"/>
<path d="M38.4501 2.81924C38.6019 3.08421 38.889 3.23328 39.1757 3.23328C39.319 3.23328 39.4627 3.20012 39.5975 3.12577C40.0027 2.90235 40.1375 2.3972 39.9013 1.99955L39.4542 1.23743C39.2266 0.839784 38.7119 0.707486 38.3067 0.939288C37.9016 1.16271 37.7668 1.66786 38.003 2.0655L38.4501 2.81924Z" fill="#596B86"/>
<path d="M36.1035 4.53346L36.8715 4.96428C37.0067 5.03862 37.15 5.07179 37.2933 5.07179C37.5804 5.07179 37.8671 4.92273 38.0189 4.65775C38.2466 4.26011 38.1118 3.76333 37.7152 3.53154L36.9472 3.09272C36.5421 2.86091 36.0359 3.0016 35.7998 3.39086C35.5636 3.7965 35.6988 4.30167 36.1035 4.53347L36.1035 4.53346Z" fill="#596B86"/>
<path d="M35.7082 7.60618H36.5943C37.0585 7.60618 37.4294 7.23369 37.4294 6.78649C37.4294 6.33089 37.0581 5.9668 36.5943 5.9668H35.7082C35.244 5.9668 34.873 6.33928 34.873 6.78649C34.873 7.23331 35.2444 7.60618 35.7082 7.60618Z" fill="#596B86"/>
<path d="M43.9006 3.11757C44.0358 3.19192 44.1792 3.22509 44.3225 3.22509C44.6096 3.22509 44.8962 3.07602 45.0481 2.81105L45.4952 2.05731C45.7229 1.65966 45.5881 1.16289 45.1915 0.931094C44.7863 0.699293 44.2802 0.839975 44.044 1.22923L43.5969 1.98298C43.3603 2.38862 43.4955 2.88578 43.9007 3.11758L43.9006 3.11757Z" fill="#596B86"/>
<path d="M42.4323 8.06985C42.061 7.86283 41.6391 7.75531 41.1834 7.75531C39.7407 7.75531 38.5762 8.90632 38.5762 10.3143C38.5762 11.7223 39.7489 12.8733 41.1834 12.8733H48.6424C49.925 12.8733 50.9626 11.8545 50.9626 10.5961C50.9626 9.33722 49.9165 8.31886 48.6424 8.31886H48.6086C48.6172 8.2773 48.6172 8.24451 48.6172 8.20296C48.6172 6.52198 47.225 5.16357 45.5204 5.16357C43.8583 5.17158 42.4999 6.45483 42.4323 8.06983L42.4323 8.06985Z" fill="#596B86"/>
<path d="M38.4258 6.77736C38.4258 6.88488 38.4425 6.98438 38.4511 7.0919C39.1934 6.48723 40.1385 6.10633 41.1764 6.10633H41.244C41.7163 5.17874 42.4929 4.43335 43.4461 3.98615C42.9481 3.68801 42.3744 3.51416 41.7501 3.51416C39.919 3.51454 38.4258 4.98042 38.4258 6.77734L38.4258 6.77736Z" fill="#596B86"/>
<path d="M3.07089 35.1821C3.07089 34.5279 3.18043 33.8901 3.3999 33.2942L4.85971 29.1701C4.47166 28.9383 4.016 28.8057 3.53514 28.8057C2.10914 28.8057 0.953125 29.9403 0.953125 31.3399V38.5363C0.953125 39.7785 1.87296 40.8136 3.0795 41.0206L3.07911 35.1821L3.07089 35.1821Z" fill="#596B86"/>
<path d="M7.74686 26.0156L4.97959 33.8496C4.82771 34.2805 4.75195 34.7357 4.75195 35.1829V41.2448H8.92852C10.1941 39.804 12.0671 38.8928 14.1512 38.8928C16.2352 38.8928 18.1083 39.812 19.3739 41.2448H37.4893C38.7549 39.804 40.6279 38.8928 42.712 38.8928C44.7961 38.8928 46.6691 39.812 47.9347 41.2448H50.8372V38.7769C50.8372 38.4624 50.8034 38.1643 50.7444 37.8661C50.3393 35.8787 48.618 34.3464 46.4921 34.1977L40.2991 33.7669L35.3716 25.3198C34.6293 24.061 33.2624 23.2744 31.7773 23.2744H11.6621C9.89007 23.2828 8.32923 24.3758 7.74699 26.0156L7.74686 26.0156ZM22.5717 27.1502C22.5717 26.6287 23.0021 26.1979 23.542 26.1979H31.76C32.1819 26.1979 32.5699 26.4213 32.7809 26.7774L36.3837 32.9552C36.7551 33.593 36.2909 34.3796 35.54 34.3796H23.5423C23.0109 34.3796 22.572 33.9572 22.572 33.4272L22.5717 27.1502ZM19.9648 27.1502V33.4355C19.9648 33.9571 19.5344 34.3879 18.9945 34.3879H9.29967C8.6331 34.3879 8.16892 33.7421 8.38837 33.129L10.5567 26.976C10.7171 26.5124 11.1642 26.2059 11.6618 26.2059H18.9941C19.5344 26.1979 19.9648 26.6203 19.9648 27.1502H19.9648Z" fill="#596B86"/>
<path d="M49.6118 45.6751C49.6118 46.205 49.5442 46.7185 49.4261 47.2153H51.4681C52.0333 47.2153 52.4976 46.7681 52.4976 46.205V43.9029C52.4976 43.3482 52.0419 42.8926 51.4681 42.8926H48.9961C49.3838 43.7454 49.6118 44.681 49.6118 45.675L49.6118 45.6751Z" fill="#596B86"/>
<path d="M4.09388 42.8926C3.52869 42.8926 3.06445 43.3398 3.06445 43.9029V46.2049C3.06445 46.7597 3.5201 47.2153 4.09388 47.2153H7.41823C7.30014 46.7185 7.23255 46.2049 7.23255 45.6751C7.23255 44.6811 7.45202 43.7455 7.84863 42.8927L4.09388 42.8926Z" fill="#596B86"/>
<path d="M20.4434 42.8926C20.8314 43.7454 21.0594 44.6814 21.0594 45.675C21.0594 46.2049 20.9918 46.7184 20.8738 47.2152H35.985C35.8669 46.7184 35.7993 46.2049 35.7993 45.675C35.7993 44.681 36.0188 43.7454 36.4154 42.8926H20.4434Z" fill="#596B86"/>
</svg>
