<svg width="55" height="50" viewBox="0 0 55 50" fill="none" xmlns="http://www.w3.org/2000/svg">
<path fill-rule="evenodd" clip-rule="evenodd" d="M14.1541 10.8757C16.8197 10.8757 18.9933 8.43739 18.9933 5.44712C18.9933 2.45684 16.8196 0.0185547 14.1541 0.0185547C11.4886 0.0185547 9.31445 2.45769 9.31445 5.44712C9.31445 8.43697 11.4886 10.8757 14.1541 10.8757Z" fill="#596B86"/>
<path fill-rule="evenodd" clip-rule="evenodd" d="M8.72158 14.1745C9.71461 12.1289 12.1883 11.2712 14.247 12.2583C15.0436 12.6407 15.6614 13.2429 16.0619 13.9571C16.9565 15.2856 18.4283 16.8947 20.242 18.2132C21.6935 19.2675 23.3381 20.1115 25.0271 20.4192C26.1503 20.6236 26.8936 21.6945 26.6874 22.8102C26.4816 23.9255 25.405 24.6654 24.2813 24.4609C21.9128 24.0287 19.6973 22.9127 17.7945 21.5295C17.0326 20.9767 16.3177 20.3766 15.6602 19.759C15.5486 20.357 15.4366 21.0409 15.3289 21.7647C14.9164 24.5252 14.6566 27.5653 14.6566 28.9584C14.6566 30.8604 16.3418 33.6325 17.719 37.1023C18.9621 40.2344 19.8437 43.843 19.9036 47.5297C19.9247 48.8527 18.8624 49.9419 17.5313 49.9622C16.2002 49.9829 15.104 48.9278 15.0833 47.6048C15.033 44.5634 14.2805 41.5242 13.2198 38.8483C12.6497 37.4112 11.9977 36.0961 11.3267 34.9555C10.9692 37.2196 10.3362 39.6509 9.38619 41.8938C8.12019 44.8845 6.27653 47.5882 3.74702 49.2625C2.63529 49.9936 1.13682 49.6913 0.401103 48.586C-0.334166 47.4807 -0.0303393 45.9926 1.08144 45.2611C2.73709 44.1645 4.01358 42.2306 4.94325 40.0337C6.81645 35.6118 6.36016 34.1345 6.36016 28.9577C6.36016 27.285 6.65765 23.7327 7.13008 20.5724C7.51293 18.0055 8.05085 15.5548 8.72147 14.1741L8.72158 14.1745Z" fill="#596B86"/>
<path fill-rule="evenodd" clip-rule="evenodd" d="M28.9396 24.1762H52.4476V20.1046C52.4476 19.7314 52.759 19.4261 53.1393 19.4261C53.5196 19.4261 53.831 19.731 53.831 20.1046V24.1762C54.2114 24.1762 54.5224 24.4819 54.5224 24.8551C54.5224 25.2284 54.2118 25.5336 53.831 25.5336V32.3201C54.2114 32.3201 54.5224 32.6249 54.5224 32.9986C54.5224 33.3718 54.2118 33.6775 53.831 33.6775V40.4635C54.2114 40.4635 54.5224 40.7692 54.5224 41.142V41.1424C54.5224 41.5153 54.2118 41.8209 53.831 41.8209V45.8932C53.831 46.2661 53.5196 46.5718 53.1393 46.5718C52.759 46.5718 52.4476 46.2661 52.4476 45.8932V41.8209L28.9396 41.8205V45.8928C28.9396 46.2657 28.6282 46.5713 28.2483 46.5713C27.868 46.5713 27.5566 46.2657 27.5566 45.8928V41.8205C27.1762 41.8205 26.8652 41.5149 26.8652 41.142V41.1416C26.8652 40.7687 27.1758 40.4631 27.5566 40.4631V33.6762C27.1762 33.6762 26.8652 33.3706 26.8652 32.9973C26.8652 32.624 27.1758 32.3188 27.5566 32.3188V25.5328C27.1762 25.5328 26.8652 25.228 26.8652 24.8543C26.8652 24.481 27.1758 24.1754 27.5566 24.1754V20.1038C27.5566 19.7305 27.868 19.4253 28.2483 19.4253C28.6282 19.4253 28.9396 19.7301 28.9396 20.1038V24.1762ZM52.4465 25.5328H28.9396V32.3192H52.4476L52.4465 25.5328ZM52.4465 33.6762H28.9396V40.4622H52.4476L52.4465 33.6762Z" fill="#596B86"/>
<path fill-rule="evenodd" clip-rule="evenodd" d="M28.2494 49.9627C29.0108 49.9627 29.6315 49.3538 29.6315 48.6061C29.6315 47.8587 29.0108 47.2495 28.2494 47.2495C27.4875 47.2495 26.8672 47.8588 26.8672 48.6061C26.8672 49.3539 27.4875 49.9627 28.2494 49.9627Z" fill="#596B86"/>
<path fill-rule="evenodd" clip-rule="evenodd" d="M53.14 49.9627C53.9019 49.9627 54.523 49.3538 54.523 48.6061C54.523 47.8587 53.9023 47.2495 53.14 47.2495C52.3785 47.2495 51.7578 47.8588 51.7578 48.6061C51.7574 49.3539 52.3781 49.9627 53.14 49.9627Z" fill="#596B86"/>
<path fill-rule="evenodd" clip-rule="evenodd" d="M38.5116 16.7351C42.0566 17.0259 44.8409 19.9415 44.8409 23.4971H31.0137C31.0137 19.9424 33.7992 17.0264 37.3442 16.7351C37.2757 16.6298 37.2364 16.5049 37.2364 16.3718C37.2364 15.9965 37.5462 15.6929 37.9282 15.6929C38.3098 15.6929 38.6195 15.9969 38.6195 16.3718C38.6195 16.5049 38.5806 16.6298 38.5122 16.7351H38.5116Z" fill="#596B86"/>
<path fill-rule="evenodd" clip-rule="evenodd" d="M48.9896 10.604C48.9896 12.4762 50.3718 12.8896 50.3718 14.6756V22.819C50.3718 23.1919 50.0603 23.4979 49.6804 23.4979H46.223C45.8431 23.4979 45.5312 23.1923 45.5312 22.819V19.7652H48.9887V16.3718H45.5312V14.6755C45.5312 12.8892 46.9143 12.4761 46.9143 10.6039L46.9147 8.56836H48.9891V10.6039L48.9896 10.604Z" fill="#596B86"/>
<path fill-rule="evenodd" clip-rule="evenodd" d="M46.916 5.32373H48.9904V8.03775H46.916V5.32373Z" fill="#596B86"/>
</svg>
