<svg width="30" height="30" viewBox="0 0 30 30" fill="none" xmlns="http://www.w3.org/2000/svg">
<path d="M12.7398 0.000610517C10.7287 0.00152345 8.7463 0.478507 6.95473 1.39257C5.16315 2.30664 3.61322 3.63184 2.43166 5.25985C1.25009 6.88786 0.470412 8.77246 0.15636 10.7596C-0.157692 12.7468 0.0027936 14.7801 0.624701 16.6933C1.24661 18.6065 2.31228 20.3454 3.73461 21.7677C5.15694 23.1901 6.89556 24.2555 8.80834 24.877C10.7211 25.4985 12.7538 25.6584 14.7401 25.3435C16.7265 25.0287 18.6102 24.2481 20.2372 23.0656L26.5851 29.4156C26.9602 29.7909 27.469 30.0017 27.9996 30.0017C28.5301 30.0017 29.0389 29.7909 29.4141 29.4156C29.7892 29.0403 30 28.5313 30 28.0006C30 27.4699 29.7892 26.9609 29.4141 26.5856L23.0663 20.2356C24.4499 18.3332 25.2798 16.0847 25.4642 13.7393C25.6486 11.394 25.1801 9.04331 24.1108 6.94795C23.0415 4.85258 21.4131 3.09433 19.406 1.86807C17.3989 0.641817 15.0916 -0.00455189 12.7398 0.000610517ZM12.7398 21.5006C11.0098 21.5006 9.3187 20.9874 7.88026 20.026C6.44183 19.0645 5.3207 17.6979 4.65867 16.0991C3.99663 14.5002 3.82341 12.7409 4.16091 11.0436C4.49842 9.34624 5.33149 7.78713 6.55477 6.56343C7.77806 5.33972 9.33663 4.50636 11.0334 4.16874C12.7301 3.83112 14.4889 4.0044 16.0872 4.66666C17.6855 5.32893 19.0516 6.45044 20.0127 7.88937C20.9738 9.3283 21.4868 11.02 21.4868 12.7506C21.4842 15.0704 20.5618 17.2945 18.922 18.9349C17.2822 20.5752 15.0589 21.498 12.7398 21.5006Z" fill="#3D4550"/>
</svg>
