<svg width="50" height="50" viewBox="0 0 50 50" fill="none" xmlns="http://www.w3.org/2000/svg">
<path fill-rule="evenodd" clip-rule="evenodd" d="M6.4346 24.6104L16.2058 34.083C16.5722 34.4387 17.0695 34.6383 17.5877 34.6383H48.0458C48.564 34.6383 49.0613 34.8379 49.4277 35.1931C49.7941 35.5483 50 36.0304 50 36.5328V42.2164C50 42.6803 49.8242 43.1281 49.5062 43.4749C49.1882 43.8216 48.7498 44.0432 48.2744 44.0978L48.0458 44.1109H44.2604L46.0776 46.5944L46.0855 46.6037C46.7071 47.4753 46.4841 48.6535 45.5969 49.2485L45.5576 49.2751H45.5581C45.1349 49.5584 44.6141 49.6688 44.1077 49.5825C43.6017 49.4959 43.1511 49.2193 42.8536 48.8129L39.418 44.1163L39.4141 44.1125H10.908L10.904 44.1163L7.4684 48.8129C7.1709 49.2193 6.7203 49.4958 6.21434 49.5825C5.70789 49.6688 5.18663 49.5584 4.76397 49.2751L4.72471 49.2485V49.2489C4.29591 48.9609 4.00322 48.5186 3.91248 48.0204C3.82219 47.5222 3.94084 47.0093 4.24226 46.5966L6.05947 44.1109H3.09886C2.40049 44.1109 1.75536 43.7497 1.40639 43.1636C1.05742 42.5775 1.05742 41.8552 1.40639 41.2691C1.75536 40.683 2.40051 40.3218 3.09886 40.3218L7.00733 36.5328L0.571876 30.294C0.205463 29.9388 0 29.4571 0 28.9547C0 28.4523 0.205452 27.9707 0.571876 27.6154L3.67162 24.6104C4.03803 24.2552 4.53489 24.056 5.0531 24.056C5.5713 24.056 6.06816 24.2552 6.43457 24.6104L6.4346 24.6104ZM8.96159 38.4274L7.00736 40.322H10.7401C10.6432 40.1156 10.5089 39.9274 10.3431 39.7667L8.96159 38.4274ZM30.4581 19.4823V32.7439H26.5497V19.4823H12.8701C12.0412 19.4823 11.2129 18.8001 10.9804 18.0178C11.3298 14.0906 13.072 10.4017 15.9108 7.57938C18.7493 4.75665 22.5085 2.97462 26.5497 2.53563V2.4316C26.5497 1.75456 26.9222 1.12915 27.5268 0.790839C28.1314 0.452533 28.8764 0.452533 29.481 0.790839C30.0856 1.12915 30.4581 1.75459 30.4581 2.4316V2.53563C34.4984 2.97458 38.2572 4.75622 41.0956 7.57808C43.9341 10.3999 45.6767 14.0875 46.0274 18.0139C45.7967 18.8001 44.9661 19.4821 44.1378 19.4821L30.4581 19.4823Z" fill="#596B86"/>
</svg>
