<svg width="17" height="15" viewBox="0 0 17 15" fill="none" xmlns="http://www.w3.org/2000/svg">
<path d="M16.5578 2.30978C15.9641 2.58609 15.3258 2.77029 14.6523 2.85734C15.3371 2.43041 15.8637 1.74945 16.1109 0.944898C15.4703 1.33945 14.7607 1.62912 14.0055 1.78183C13.4025 1.11038 12.5424 0.693848 11.5896 0.693848C9.75912 0.693848 8.27568 2.23878 8.27568 4.14349C8.27568 4.41296 8.30566 4.6756 8.36223 4.93051C5.60861 4.78523 3.16638 3.41025 1.53248 1.32341C1.2454 1.83323 1.08391 2.43041 1.08391 3.06056C1.08391 4.25817 1.66767 5.31229 2.55773 5.93353C2.01442 5.916 1.50306 5.75735 1.05534 5.50273C1.05534 5.51313 1.05534 5.52858 1.05534 5.54314C1.05534 7.21671 2.19797 8.61012 3.71252 8.92742C3.43563 9.00704 3.14319 9.05131 2.84169 9.05131C2.62759 9.05131 2.41914 9.02576 2.2172 8.98773C2.6389 10.3553 3.86242 11.355 5.31192 11.3844C4.17778 12.3081 2.74949 12.8613 1.19619 12.8613C0.927787 12.8613 0.665604 12.8453 0.40625 12.8123C1.87328 13.7883 3.61579 14.3605 5.48614 14.3605C11.5808 14.3605 14.9148 9.10301 14.9148 4.5422C14.9148 4.39276 14.9103 4.24391 14.9035 4.09685C15.5543 3.61436 16.1149 3.0053 16.5578 2.30978Z" fill="#00B2FF"/>
</svg>
